<svg id="visual" viewBox="0 0 900 600" width="900" height="600" xmlns="http://www.w3.org/2000/svg" xmlns:xlink="http://www.w3.org/1999/xlink" version="1.1"><rect x="0" y="0" width="900" height="600" fill="#001220"></rect><path d="M0 407L21.5 407.8C43 408.7 86 410.3 128.8 407.8C171.7 405.3 214.3 398.7 257.2 392.5C300 386.3 343 380.7 385.8 374.2C428.7 367.7 471.3 360.3 514.2 359.2C557 358 600 363 642.8 375.5C685.7 388 728.3 408 771.2 409.7C814 411.3 857 394.7 878.5 386.3L900 378L900 601L878.5 601C857 601 814 601 771.2 601C728.3 601 685.7 601 642.8 601C600 601 557 601 514.2 601C471.3 601 428.7 601 385.8 601C343 601 300 601 257.2 601C214.3 601 171.7 601 128.8 601C86 601 43 601 21.5 601L0 601Z" fill="#fa7268"></path><path d="M0 464L21.5 463.2C43 462.3 86 460.7 128.8 451C171.7 441.3 214.3 423.7 257.2 419C300 414.3 343 422.7 385.8 428C428.7 433.3 471.3 435.7 514.2 435C557 434.3 600 430.7 642.8 429.8C685.7 429 728.3 431 771.2 425.5C814 420 857 407 878.5 400.5L900 394L900 601L878.5 601C857 601 814 601 771.2 601C728.3 601 685.7 601 642.8 601C600 601 557 601 514.2 601C471.3 601 428.7 601 385.8 601C343 601 300 601 257.2 601C214.3 601 171.7 601 128.8 601C86 601 43 601 21.5 601L0 601Z" fill="#ef5f67"></path><path d="M0 440L21.5 450.5C43 461 86 482 128.8 487.3C171.7 492.7 214.3 482.3 257.2 481.7C300 481 343 490 385.8 488.8C428.7 487.7 471.3 476.3 514.2 466.3C557 456.3 600 447.7 642.8 450.2C685.7 452.7 728.3 466.3 771.2 475.2C814 484 857 488 878.5 490L900 492L900 601L878.5 601C857 601 814 601 771.2 601C728.3 601 685.7 601 642.8 601C600 601 557 601 514.2 601C471.3 601 428.7 601 385.8 601C343 601 300 601 257.2 601C214.3 601 171.7 601 128.8 601C86 601 43 601 21.5 601L0 601Z" fill="#e34c67"></path><path d="M0 517L21.5 512.3C43 507.7 86 498.3 128.8 498.2C171.7 498 214.3 507 257.2 511C300 515 343 514 385.8 513.7C428.7 513.3 471.3 513.7 514.2 512.8C557 512 600 510 642.8 514C685.7 518 728.3 528 771.2 528.5C814 529 857 520 878.5 515.5L900 511L900 601L878.5 601C857 601 814 601 771.2 601C728.3 601 685.7 601 642.8 601C600 601 557 601 514.2 601C471.3 601 428.7 601 385.8 601C343 601 300 601 257.2 601C214.3 601 171.7 601 128.8 601C86 601 43 601 21.5 601L0 601Z" fill="#d53867"></path><path d="M0 558L21.5 557.5C43 557 86 556 128.8 556.7C171.7 557.3 214.3 559.7 257.2 555C300 550.3 343 538.7 385.8 533.7C428.7 528.7 471.3 530.3 514.2 536.7C557 543 600 554 642.8 554.5C685.7 555 728.3 545 771.2 544C814 543 857 551 878.5 555L900 559L900 601L878.5 601C857 601 814 601 771.2 601C728.3 601 685.7 601 642.8 601C600 601 557 601 514.2 601C471.3 601 428.7 601 385.8 601C343 601 300 601 257.2 601C214.3 601 171.7 601 128.8 601C86 601 43 601 21.5 601L0 601Z" fill="#c62368"></path></svg>